<svg id="Layer_1" data-name="Layer 1" xmlns="http://www.w3.org/2000/svg" viewBox="0 0 122.88 116.05"><defs><style>.cls-1{fill:#de9c2d;}.cls-2{fill:#737373;}.cls-3{fill:#f5f5f5;}.cls-4{fill:#fad460;}</style></defs><title>folder-directory-files</title><path class="cls-1" d="M2.48,41.58H7V31.72a2.48,2.48,0,0,1,2.49-2.48h4.4V23.32a2.49,2.49,0,0,1,2.49-2.48H56.61a2.48,2.48,0,0,1,2.48,2.48v5.92h54.3a2.48,2.48,0,0,1,2.48,2.48v9.86h4.53a2.45,2.45,0,0,1,1,.2,1.69,1.69,0,0,1,.91.68,2.46,2.46,0,0,1,.59,1.6,2.33,2.33,0,0,1-.06.53l-8.68,63.81c-.48,5.67-3,7.65-7.94,7.65H14.7c-5.45,0-7.41-2.47-8-7.73L0,44.32A2.53,2.53,0,0,1,.26,43a1.7,1.7,0,0,1,1.39-1.22,2.63,2.63,0,0,1,.57-.13h.26Z"/><path class="cls-1" d="M9.06,31.33V41.81H113.3V31.33H59.49A2.5,2.5,0,0,1,57,28.84V22.93H16.26v5.91a2.49,2.49,0,0,1-2.48,2.49Z"/><path class="cls-2" d="M23.3,41.84V16.43a3.55,3.55,0,0,1,3.56-3.56H48.73v29Z"/><polygon class="cls-3" points="48.73 15.25 25.7 15.25 25.7 41.8 48.73 41.8 48.73 15.25 48.73 15.25"/><path class="cls-2" d="M35.88,25.88H48.73v3.23H35.88c-2,0-1.93-3.23,0-3.23Zm0,9.61H48.73v3.23H35.86c-2,0-1.93-3.23,0-3.23Z"/><path class="cls-2" d="M46.29,41.84V3.64A3.65,3.65,0,0,1,49.94,0H87a2,2,0,0,1,1.56.75l18,17.47a2,2,0,0,1,1.47,2V41.84Z"/><path class="cls-3" d="M105.52,41.69V20.57H89.06a2.05,2.05,0,0,1-2-2.05v-16H48.78V41.69Z"/><path class="cls-2" d="M59.17,13.33H75.6c2,0,2,3.3,0,3.3H59.17c-2,0-2-3.3,0-3.3Zm0,19.68H88.84c2,0,2,3.3,0,3.3H59.16c-2,0-2-3.27,0-3.31Zm0-9.84H79.07c2,0,2,3.3,0,3.3H59.16c-2,0-2-3.3,0-3.3Z"/><path class="cls-4" d="M3.63,45.09l7.07,63.52c.17,1.64,1.24,3.27,3,3.27H107c1.82,0,2.82-1.73,3-3.34l9.08-63.45Z"/></svg>